<svg width="25" height="24" viewBox="0 0 25 24" fill="none" xmlns="http://www.w3.org/2000/svg">
<path d="M19.25 4H18.25V3C18.25 2.45 17.8 2 17.25 2C16.7 2 16.25 2.45 16.25 3V4H8.25V3C8.25 2.45 7.8 2 7.25 2C6.7 2 6.25 2.45 6.25 3V4H5.25C4.14 4 3.26 4.9 3.26 6L3.25 20C3.25 21.1 4.14 22 5.25 22H19.25C20.35 22 21.25 21.1 21.25 20V6C21.25 4.9 20.35 4 19.25 4ZM19.25 19C19.25 19.55 18.8 20 18.25 20H6.25C5.7 20 5.25 19.55 5.25 19V9H19.25V19ZM7.25 11H9.25V13H7.25V11ZM11.25 11H13.25V13H11.25V11ZM15.25 11H17.25V13H15.25V11Z" fill="#02CAD1"/>
</svg>
