<svg width="16" height="16" viewBox="0 0 16 16" fill="none" xmlns="http://www.w3.org/2000/svg">
<path d="M7.99334 1.33334C4.31334 1.33334 1.33334 4.32001 1.33334 8.00001C1.33334 11.68 4.31334 14.6667 7.99334 14.6667C11.68 14.6667 14.6667 11.68 14.6667 8.00001C14.6667 4.32001 11.68 1.33334 7.99334 1.33334ZM10.6667 10.6667C10.4067 10.9267 9.98668 10.9267 9.72668 10.6667L7.53334 8.47334C7.40668 8.34668 7.33334 8.18001 7.33334 8.00001V5.33334C7.33334 4.96668 7.63334 4.66668 8.00001 4.66668C8.36668 4.66668 8.66668 4.96668 8.66668 5.33334V7.72668L10.6667 9.72668C10.9267 9.98668 10.9267 10.4067 10.6667 10.6667Z" fill="#EEEEEE"/>
</svg>
