<svg width="28" height="28" viewBox="0 0 28 28" fill="none" xmlns="http://www.w3.org/2000/svg">
<path d="M23.3333 4.66675H4.66659C3.38325 4.66675 2.34492 5.71675 2.34492 7.00008L2.33325 21.0001C2.33325 22.2834 3.38325 23.3334 4.66659 23.3334H23.3333C24.6166 23.3334 25.6666 22.2834 25.6666 21.0001V7.00008C25.6666 5.71675 24.6166 4.66675 23.3333 4.66675ZM22.8666 9.62508L14.6183 14.7817C14.2449 15.0151 13.7549 15.0151 13.3816 14.7817L5.13325 9.62508C4.84159 9.43842 4.66659 9.12341 4.66659 8.78508C4.66659 8.00342 5.51825 7.53675 6.18325 7.94508L13.9999 12.8334L21.8166 7.94508C22.4816 7.53675 23.3333 8.00342 23.3333 8.78508C23.3333 9.12341 23.1583 9.43842 22.8666 9.62508Z" fill="#1D1D1B" fill-opacity="0.87"/>
</svg>
