<svg width="16" height="16" viewBox="0 0 16 16" fill="none" xmlns="http://www.w3.org/2000/svg">
<path d="M7.99999 1.33333C5.19999 1.33333 2.66666 3.47999 2.66666 6.79999C2.66666 8.92 4.29999 11.4133 7.55999 14.2867C7.81332 14.5067 8.19332 14.5067 8.44666 14.2867C11.7 11.4133 13.3333 8.92 13.3333 6.79999C13.3333 3.47999 10.8 1.33333 7.99999 1.33333ZM7.99999 8C7.26666 8 6.66666 7.4 6.66666 6.66666C6.66666 5.93333 7.26666 5.33333 7.99999 5.33333C8.73332 5.33333 9.33332 5.93333 9.33332 6.66666C9.33332 7.4 8.73332 8 7.99999 8Z" fill="#EEEEEE"/>
</svg>
