<svg width="28" height="28" viewBox="0 0 28 28" fill="none" xmlns="http://www.w3.org/2000/svg">
<path d="M14 2.33325C9.10001 2.33325 4.66667 6.08992 4.66667 11.8999C4.66667 15.6099 7.52501 19.9733 13.23 25.0016C13.6733 25.3866 14.3383 25.3866 14.7817 25.0016C20.475 19.9733 23.3333 15.6099 23.3333 11.8999C23.3333 6.08992 18.9 2.33325 14 2.33325ZM14 13.9999C12.7167 13.9999 11.6667 12.9499 11.6667 11.6666C11.6667 10.3833 12.7167 9.33325 14 9.33325C15.2833 9.33325 16.3333 10.3833 16.3333 11.6666C16.3333 12.9499 15.2833 13.9999 14 13.9999Z" fill="black" fill-opacity="0.6"/>
</svg>
