<svg width="32" height="32" viewBox="0 0 32 32" fill="none" xmlns="http://www.w3.org/2000/svg">
<path d="M8.00004 13.3333C6.53337 13.3333 5.33337 14.5333 5.33337 15.9999C5.33337 17.4666 6.53337 18.6666 8.00004 18.6666C9.46671 18.6666 10.6667 17.4666 10.6667 15.9999C10.6667 14.5333 9.46671 13.3333 8.00004 13.3333ZM24 13.3333C22.5334 13.3333 21.3334 14.5333 21.3334 15.9999C21.3334 17.4666 22.5334 18.6666 24 18.6666C25.4667 18.6666 26.6667 17.4666 26.6667 15.9999C26.6667 14.5333 25.4667 13.3333 24 13.3333ZM16 13.3333C14.5334 13.3333 13.3334 14.5333 13.3334 15.9999C13.3334 17.4666 14.5334 18.6666 16 18.6666C17.4667 18.6666 18.6667 17.4666 18.6667 15.9999C18.6667 14.5333 17.4667 13.3333 16 13.3333Z" fill="#212121"/>
</svg>
