<svg width="28" height="28" viewBox="0 0 28 28" fill="none" xmlns="http://www.w3.org/2000/svg">
<path d="M22.435 17.8031L19.4717 17.4648C18.76 17.3831 18.06 17.6281 17.5584 18.1298L15.4117 20.2765C12.11 18.5965 9.40338 15.9015 7.72338 12.5881L9.88171 10.4298C10.3834 9.92814 10.6284 9.22814 10.5467 8.51647L10.2084 5.57647C10.0684 4.39814 9.07671 3.51147 7.88671 3.51147H5.86838C4.55005 3.51147 3.45338 4.60814 3.53505 5.92647C4.15338 15.8898 12.1217 23.8465 22.0734 24.4648C23.3917 24.5465 24.4884 23.4498 24.4884 22.1315V20.1131C24.5 18.9348 23.6134 17.9431 22.435 17.8031Z" fill="#1D1D1B" fill-opacity="0.87"/>
</svg>
